<?xml version="1.0" encoding="UTF-8"?>
<!DOCTYPE svg PUBLIC "-//W3C//DTD SVG 1.1//EN" "http://www.w3.org/Graphics/SVG/1.1/DTD/svg11.dtd">
<!-- Creator: CorelDRAW -->
<svg xmlns="http://www.w3.org/2000/svg" xml:space="preserve" width="21.1667mm" height="15.0526mm" version="1.1" style="shape-rendering:geometricPrecision; text-rendering:geometricPrecision; image-rendering:optimizeQuality; fill-rule:evenodd; clip-rule:evenodd"
viewBox="0 0 2110.88 1501.14"
 xmlns:xlink="http://www.w3.org/1999/xlink"
 xmlns:xodm="http://www.corel.com/coreldraw/odm/2003">
 <defs>
  <style type="text/css">
   <![CDATA[
    .fil2 {fill:#FEFEFE}
    .fil3 {fill:#09A503}
    .fil4 {fill:#370B84}
    .fil0 {fill:#F2F2F2;fill-rule:nonzero}
    .fil1 {fill:url(#id0)}
   ]]>
  </style>
  <linearGradient id="id0" gradientUnits="userSpaceOnUse" x1="404.11" y1="128.25" x2="404.11" y2="1372.89">
   <stop offset="0" style="stop-opacity:1; stop-color:#0627AA"/>
   <stop offset="1" style="stop-opacity:1; stop-color:#C91BF8"/>
  </linearGradient>
 </defs>
 <g id="Camada_x0020_1">
  <metadata id="CorelCorpID_0Corel-Layer"/>
  <g id="_2759756916192">
   <g>
    <g>
     <g>
      <path class="fil0" d="M1643.67 1232.36c-0.51,1.63 -1.28,2.99 -2.31,4.08 -2.09,2.19 -5.68,3.29 -10.68,3.29 7,-0.07 11.34,-2.53 12.99,-7.37z"/>
      <path class="fil0" d="M1869.47 795.4c0.94,-0.18 1.92,-0.28 2.95,-0.28l0.9 0c-1.39,0 -2.66,0.1 -3.85,0.28z"/>
      <path class="fil0" d="M1859.26 807.69l0 -1.21 0.06 -0.32c-0.04,0.49 -0.06,1 -0.06,1.53z"/>
      <path class="fil0" d="M1560.07 808.58c0,-3.79 1.2,-6.98 3.49,-9.57 2.29,-2.59 5.48,-3.89 9.67,-3.89l68.82 0c2.79,0 5.38,0.6 7.87,1.89 2.5,1.3 4.79,3.39 6.78,6.18 34.02,48.68 67.82,97.04 101.23,145.11 33.51,47.97 67.32,96.35 101.32,145.01l0 -254.82c0,-23.86 19.52,-43.38 43.38,-43.38l27.52 0c3.99,0 7.48,1.2 10.37,3.59 2.89,2.39 4.29,5.58 4.29,9.57l0 419.18c0,8.17 -4.69,12.27 -14.06,12.27l-64.82 0c-4.39,0 -8.48,-2.69 -12.27,-8.08 -35.1,-50.87 -70.01,-101.73 -104.81,-152.59 -34.7,-50.77 -69.51,-101.73 -104.42,-152.79l0 270.08c0,23.86 -19.52,43.38 -43.38,43.38l-27.82 0c-4.59,0 -7.88,-1.2 -9.97,-3.49 -2.09,-2.29 -3.19,-5.4 -3.19,-9.37l0 -418.28z"/>
      <path class="fil0" d="M1038.59 795.12l253.12 0c9.17,0 13.76,4.79 13.76,14.46l0 52.17c0,3.69 -1.2,6.88 -3.59,9.77 -2.39,2.89 -5.78,4.39 -10.17,4.39l-209.73 0 0 119.07c5.2,0 12.07,0 20.64,0 8.59,0 17.96,0 28.13,0 10.17,0 20.74,0.1 31.71,0.3 10.97,0.2 21.54,0.3 31.71,0.3 10.17,0 19.55,0 28.02,0 8.48,0 15.36,0 20.74,0 3.59,0 6.68,1 9.27,3.09 2.59,2.09 3.89,5.58 3.89,10.37l0 50.87c0,3.59 -1.1,6.78 -3.39,9.67 -2.29,2.89 -5.48,4.39 -9.47,4.39l-161.27 0 0 122.37c0,23.86 -19.52,43.38 -43.38,43.38l-31.41 0c-7.98,-0.41 -11.97,-4.59 -11.97,-12.58l0 -388.65c0,-23.86 19.53,-43.38 43.38,-43.38z"/>
      <path class="fil0" d="M1005.61 795.37c0.69,-0.12 1.42,-0.21 2.16,-0.25l1.5 0c-1.31,0 -2.53,0.09 -3.66,0.25z"/>
      <path class="fil0" d="M1390.13 795.12l-0.9 0c-5.08,0 -8.68,1.48 -10.82,4.41 2.26,-2.93 6.17,-4.41 11.72,-4.41z"/>
      <path class="fil0" d="M1376.07 1226.56c0,3.59 1.1,6.68 3.29,9.27 2.19,2.59 5.48,3.89 9.87,3.89l30.22 0c23.86,0 43.38,-19.52 43.38,-43.38l0 -388.06c0,-8.78 -4.69,-13.16 -14.06,-13.16l-29.32 0c-23.86,0 -43.38,19.52 -43.38,43.38l0 388.06z"/>
     </g>
     <g>
      <path class="fil0" d="M1857.78 261.42l39.17 0c3.59,0 6.78,1.19 9.47,3.49 2.69,2.28 3.99,5.48 3.99,9.66l0 349.47 157.08 1.19c23.85,0 43.38,19.52 43.38,43.38l0 23.94c0,3.59 -1.2,6.68 -3.59,9.37 -2.39,2.69 -5.58,4.09 -9.57,4.09l-260.89 0c-8.78,0 -13.16,-4.39 -13.16,-13.16l0 -389.06c0,-20.69 14.68,-38.11 34.13,-42.37z"/>
      <path class="fil0" d="M1509.84 261.42l39.16 0c3.59,0 6.79,1.19 9.48,3.49 2.68,2.28 3.99,5.48 3.99,9.66l0 349.47 157.07 1.19c23.86,0 43.38,19.52 43.38,43.38l0 23.94c0,3.59 -1.2,6.68 -3.59,9.37 -2.39,2.69 -5.58,4.09 -9.57,4.09l-260.89 0c-8.78,0 -13.16,-4.39 -13.16,-13.16l0 -389.06c0,-20.69 14.68,-38.11 34.14,-42.37z"/>
      <path class="fil0" d="M995.51 694.95c1,-3.99 2.19,-7.68 3.49,-11.07 1.3,-3.39 2.39,-6.48 3.39,-9.27l161.27 -401.83c0.6,-2.18 2.29,-4.59 4.99,-7.27 2.69,-2.69 6.28,-4.09 10.87,-4.09l48.17 0c4.79,0 8.28,1.19 10.37,3.59 2.09,2.39 3.59,4.49 4.59,6.28l9.87 23.34 157.97 395.53c0,0.6 0.2,1.6 0.5,3.09 0.3,1.5 0.4,2.79 0.4,3.79 0,5.98 -4.39,8.98 -13.16,8.98l-58.94 0c-4.39,0 -7.78,-0.9 -10.17,-2.69 -2.39,-1.8 -4.39,-4.59 -5.98,-8.38l-5.39 -13.76c-3.79,-9.57 -7.58,-19.15 -11.37,-28.72 -3.79,-9.57 -7.48,-19.25 -11.07,-29.03l-184.59 0c-5.2,13.96 -10.18,27.03 -15.06,39.3 -4.9,12.27 -9.09,23.04 -12.48,32.21 -2.79,7.38 -7.97,11.07 -15.55,11.07l-59.85 0c-3.79,0 -6.78,-0.7 -9.08,-2.09 -2.29,-1.4 -3.49,-3.49 -3.49,-6.28 0,-1.2 0.1,-2.09 0.3,-2.69zm208.24 -319.54c-10.77,27.52 -21.44,56.06 -32.11,85.58 -10.67,29.52 -21.44,57.94 -32.21,85.27l127.45 0 -63.13 -170.84z"/>
     </g>
    </g>
   </g>
   <g>
    <path class="fil1" d="M546.85 187.14l202.5 202.5c39.25,39.25 58.88,90.99 58.88,142.74l-185.93 0 -218.19 -218.19 -218.18 218.19 218.18 218.19 0 185.94c-51.74,0 -103.48,-19.63 -142.73,-58.89l-202.5 -202.5c-39.25,-39.25 -58.88,-90.99 -58.88,-142.74 0,-51.75 19.63,-103.49 58.88,-142.74l202.5 -202.5c39.25,-39.26 90.99,-58.89 142.73,-58.89 51.75,0 103.49,19.63 142.74,58.89zm0 1126.88l202.5 -202.51c39.25,-39.25 58.88,-90.99 58.88,-142.74 0,-51.74 -19.63,-103.49 -58.88,-142.74l-202.5 -202.5c-39.25,-39.25 -90.99,-58.88 -142.74,-58.88l0 185.93 218.19 218.19 -218.19 218.19 -218.18 -218.19 -185.93 0c0,51.75 19.63,103.49 58.88,142.74l202.5 202.51c39.25,39.25 90.99,58.88 142.73,58.88 51.75,0 103.49,-19.63 142.74,-58.88z"/>
    <path class="fil2" d="M400.75 0l-124.14 0 0 173.37c36.92,-30.08 82.21,-45.13 127.5,-45.13 42.58,0 85.16,13.29 120.78,39.88l0 -43.99c0,-68.27 -55.86,-124.14 -124.14,-124.14zm3.36 314.19l-127.5 127.5 0 617.76 127.5 127.51 120.78 -120.78 0 -631.22 -120.78 -120.78zm0 1058.7c-45.29,0 -90.58,-15.04 -127.5,-45.12l0 49.22c0,68.28 55.87,124.14 124.14,124.14l124.14 0 0 -168.13c-35.62,26.59 -78.2,39.88 -120.78,39.88z"/>
    <g>
     <path class="fil3" d="M475 140.97c1.81,0.67 3.6,1.37 5.39,2.08 -1.8,-0.72 -3.58,-1.42 -5.39,-2.08zm7.25 2.85c1.23,0.51 2.44,1.04 3.66,1.58 -1.22,-0.54 -2.43,-1.07 -3.66,-1.58zm3.66 1.58l0.12 0.05 1.74 0.77 0.16 0.08 1.75 0.8 1.78 0.84 0.07 0.03 1.82 0.89 1.65 0.82 0.28 0.14 1.61 0.82 0.21 0.11c1.18,0.61 2.34,1.23 3.51,1.85l1.8 0.98c1.13,0.63 2.24,1.27 3.36,1.91 -1.12,-0.65 -2.23,-1.29 -3.36,-1.91l-16.47 -8.17zm22.03 11.38c2.76,1.65 5.48,3.37 8.19,5.17 -2.7,-1.8 -5.43,-3.52 -8.19,-5.17zm8.67 5.48c2.13,1.44 4.25,2.91 6.34,4.43 -2.09,-1.52 -4.21,-2.99 -6.34,-4.43z"/>
    </g>
    <path class="fil4" d="M276.61 623.07l127.5 127.5 0 185.94c-45.29,0 -90.58,-15.05 -127.5,-45.13l0 -268.31z"/>
    <polygon class="fil3" points="276.61,1059.45 404.11,1186.95 404.11,1186.96 276.61,1059.45 "/>
    <g>
     <path class="fil3" d="M524.89 1066.17l-120.78 120.78 120.78 -120.77 0 -0.01zm-49.89 293.99c1.81,-0.67 3.6,-1.37 5.39,-2.08 -1.79,0.72 -3.58,1.42 -5.39,2.08zm5.39 -2.08l1.86 -0.77c1.23,-0.51 2.44,-1.04 3.66,-1.57l0.12 -0.06 1.74 -0.77 0.16 -0.08 1.75 -0.8 1.78 -0.83 0.07 -0.04 1.82 -0.89 1.65 -0.82 0.28 -0.13 1.61 -0.83 0.21 -0.1c1.18,-0.61 2.34,-1.23 3.51,-1.86l1.8 -0.98c1.13,-0.63 2.24,-1.27 3.36,-1.91l0.32 -0.18 1.47 -0.87 0.41 -0.24c2.76,-1.66 5.48,-3.38 8.19,-5.18 -2.7,1.8 -5.44,3.52 -8.19,5.18l-27.55 13.71zm16.69 -7.67c1.18,-0.61 2.34,-1.23 3.51,-1.86l-3.51 1.86zm19.53 -11.54c2.13,-1.44 4.25,-2.9 6.34,-4.43 -2.09,1.53 -4.21,2.99 -6.34,4.43z"/>
    </g>
    <path class="fil4" d="M524.89 871.35l-120.78 -120.78 0 -185.93c42.58,0 85.16,13.29 120.78,39.87l0 266.84z"/>
   </g>
  </g>
 </g>
</svg>
